<?xml version="1.0" encoding="utf-8"?>
<!-- Generator: Adobe Illustrator 23.0.3, SVG Export Plug-In . SVG Version: 6.00 Build 0)  -->
<svg version="1.1" id="Calque_1" xmlns="http://www.w3.org/2000/svg" xmlns:xlink="http://www.w3.org/1999/xlink" x="0px" y="0px"
	 viewBox="0 0 200 100" style="enable-background:new 0 0 200 100;" xml:space="preserve">
<g>
	<path d="M26.7,66.4c-3.9,0-7.2-0.7-10.1-2.2c-2.8-1.5-5.1-3.4-6.6-6c-1.6-2.5-2.4-5.4-2.4-8.6c0-3.3,0.8-6.2,2.3-8.7
		c1.5-2.5,3.6-4.5,6.3-5.9c2.7-1.4,5.7-2.2,9.2-2.2c3.2,0,6.1,0.7,8.7,2c2.6,1.3,4.7,3.2,6.3,5.7c1.6,2.5,2.4,5.5,2.4,9.1
		c0,0.4,0,0.9-0.1,1.4c0,0.5-0.1,1-0.1,1.4H16.9v-6h19.6l-4.3,1.7c0-1.4-0.2-2.7-0.8-3.8c-0.6-1.1-1.4-1.9-2.4-2.5
		c-1-0.6-2.2-0.9-3.5-0.9c-1.4,0-2.6,0.3-3.6,0.9c-1,0.6-1.8,1.4-2.4,2.5c-0.5,1.1-0.8,2.4-0.8,3.9V50c0,1.6,0.3,3,1,4.1
		c0.7,1.2,1.6,2,2.8,2.7c1.2,0.6,2.7,0.9,4.4,0.9c1.6,0,3-0.2,4.1-0.7c1.1-0.5,2.2-1.2,3.3-2.1l5.9,6.3c-1.5,1.7-3.4,3-5.7,3.9
		C32.4,65.9,29.7,66.4,26.7,66.4z"/>
	<path d="M48,65.9V21.5h11.4v44.4H48z"/>
	<path d="M72.4,29.9c-2.1,0-3.8-0.6-5.1-1.7c-1.3-1.2-1.9-2.6-1.9-4.3c0-1.7,0.6-3.1,1.9-4.3c1.3-1.1,2.9-1.7,5.1-1.7
		c2.1,0,3.7,0.5,5,1.6c1.3,1.1,1.9,2.5,1.9,4.1c0,1.8-0.6,3.3-1.9,4.5C76.2,29.3,74.5,29.9,72.4,29.9z M66.7,65.9V33.4h11.4v32.5
		H66.7z"/>
	<path d="M99.3,64.2c-2.8,0-5.5-0.6-7.9-1.9c-2.4-1.3-4.3-3.1-5.8-5.4c-1.5-2.3-2.2-5.1-2.2-8.3c0-3.2,0.7-6,2.2-8.3
		c1.5-2.4,3.4-4.2,5.8-5.4c2.4-1.3,5-1.9,7.9-1.9c2.8,0,5.2,0.6,7.1,1.7c2,1.1,3.4,2.8,4.5,5.2c1,2.3,1.5,5.3,1.5,8.8
		c0,3.5-0.5,6.5-1.5,8.8c-1,2.3-2.5,4.1-4.5,5.2C104.4,63.6,102,64.2,99.3,64.2z M101.3,78c-3.1,0-6.1-0.4-8.9-1.1
		c-2.8-0.7-5.2-1.8-7.2-3.2l4.1-7.9c1.4,1,3,1.9,5.1,2.5c2,0.6,4,0.9,5.9,0.9c3,0,5.2-0.7,6.5-2c1.3-1.3,2-3.3,2-5.8v-3.8l0.6-9.1
		v-9.1v-6h10.8v26.5c0,6.1-1.6,10.7-4.9,13.6C112,76.5,107.3,78,101.3,78z M102,55.2c1.4,0,2.6-0.3,3.6-0.8c1-0.6,1.9-1.3,2.5-2.3
		c0.6-1,0.9-2.2,0.9-3.5c0-1.3-0.3-2.5-0.9-3.5c-0.6-1-1.4-1.8-2.5-2.3c-1-0.5-2.3-0.8-3.6-0.8c-1.4,0-2.6,0.3-3.6,0.8
		c-1.1,0.5-1.9,1.3-2.5,2.3c-0.6,1-1,2.2-1,3.5c0,1.3,0.3,2.5,1,3.5c0.6,1,1.5,1.8,2.5,2.3C99.4,54.9,100.6,55.2,102,55.2z"/>
	<path d="M133.3,29.9c-2.1,0-3.8-0.6-5.1-1.7c-1.3-1.2-1.9-2.6-1.9-4.3c0-1.7,0.6-3.1,1.9-4.3c1.3-1.1,2.9-1.7,5.1-1.7
		c2.1,0,3.7,0.5,5,1.6c1.3,1.1,1.9,2.5,1.9,4.1c0,1.8-0.6,3.3-1.9,4.5C137.1,29.3,135.4,29.9,133.3,29.9z M127.6,65.9V33.4h11.4
		v32.5H127.6z"/>
	<path d="M156.5,66.4c-2.6,0-4.7-0.4-6.5-1.3c-1.8-0.9-3.2-2.1-4.1-3.6c-0.9-1.5-1.4-3.2-1.4-5c0-2,0.5-3.7,1.5-5.2
		c1-1.5,2.6-2.6,4.7-3.4c2.1-0.8,4.9-1.2,8.2-1.2h7.7v6h-6.1c-1.8,0-3.1,0.3-3.9,0.8c-0.7,0.6-1.1,1.4-1.1,2.4c0,1,0.4,1.7,1.1,2.4
		c0.8,0.6,1.8,0.9,3.1,0.9c1.3,0,2.4-0.3,3.4-0.9c1-0.6,1.7-1.6,2.2-2.8l1.6,4.2c-0.6,2.2-1.8,3.9-3.5,5.1
		C161.6,65.8,159.4,66.4,156.5,66.4z M166.1,65.9v-6l-0.8-1.5V47.2c0-1.8-0.5-3.2-1.6-4.2c-1.1-1-2.8-1.5-5.2-1.5
		c-1.6,0-3.1,0.3-4.8,0.8c-1.6,0.5-3,1.2-4.1,2l-3.8-7.7c1.8-1.2,4-2.1,6.6-2.8c2.6-0.7,5.1-1,7.7-1c5.3,0,9.3,1.2,12.2,3.6
		c2.9,2.4,4.3,6.2,4.3,11.4v18H166.1z"/>
	<path d="M188.6,66.4c-1.9,0-3.5-0.6-4.8-1.9c-1.3-1.3-2-2.9-2-4.9c0-2,0.7-3.6,2-4.8c1.3-1.2,2.9-1.8,4.8-1.8
		c1.9,0,3.5,0.6,4.8,1.8c1.3,1.2,2,2.8,2,4.8c0,2-0.7,3.7-2,4.9C192.2,65.8,190.5,66.4,188.6,66.4z"/>
</g>
</svg>
